<?xml version="1.0" standalone="no"?>
<!DOCTYPE svg PUBLIC "-//W3C//DTD SVG 20010904//EN"
 "http://www.w3.org/TR/2001/REC-SVG-20010904/DTD/svg10.dtd">
<svg version="1.0" xmlns="http://www.w3.org/2000/svg"
 width="663.000000pt" height="663.000000pt" viewBox="0 0 663.000000 663.000000"
 preserveAspectRatio="xMidYMid meet">
<metadata>
Created by potrace 1.11, written by Peter Selinger 2001-2013
</metadata>
<g transform="translate(0.000000,663.000000) scale(0.100000,-0.100000)"
fill="#000000" stroke="none">
<path d="M0 3325 l0 -2805 100 0 100 0 0 80 0 80 205 0 205 0 0 -80 0 -80 105
0 105 0 0 2805 0 2805 -105 0 -105 0 0 -60 0 -60 -205 0 -205 0 0 60 0 60
-100 0 -100 0 0 -2805z m610 2340 l0 -105 -205 0 -205 0 0 105 0 105 205 0
205 0 0 -105z m0 -510 l0 -105 -205 0 -205 0 0 105 0 105 205 0 205 0 0 -105z
m0 -510 l0 -105 -205 0 -205 0 0 105 0 105 205 0 205 0 0 -105z m0 -510 l0
-105 -205 0 -205 0 0 105 0 105 205 0 205 0 0 -105z m0 -500 l0 -105 -205 0
-205 0 0 105 0 105 205 0 205 0 0 -105z m0 -510 l0 -105 -205 0 -205 0 0 105
0 105 205 0 205 0 0 -105z m0 -510 l0 -105 -205 0 -205 0 0 105 0 105 205 0
205 0 0 -105z m0 -510 l0 -105 -205 0 -205 0 0 105 0 105 205 0 205 0 0 -105z
m0 -510 l0 -105 -205 0 -205 0 0 105 0 105 205 0 205 0 0 -105z m0 -510 l0
-105 -205 0 -205 0 0 105 0 105 205 0 205 0 0 -105z"/>
<path d="M3740 3330 l0 -2800 100 0 100 0 0 80 0 80 205 0 205 0 0 -80 0 -80
105 0 105 0 0 1240 0 1240 1035 0 1035 0 0 245 0 245 -1035 0 -1035 0 0 1075
0 1075 1035 0 1035 0 0 240 0 240 -1140 0 -1140 0 0 -50 0 -50 -205 0 -205 0
0 50 0 50 -100 0 -100 0 0 -2800z m610 2345 l0 -105 -205 0 -205 0 0 105 0
105 205 0 205 0 0 -105z m0 -510 l0 -105 -205 0 -205 0 0 105 0 105 205 0 205
0 0 -105z m0 -510 l0 -105 -205 0 -205 0 0 105 0 105 205 0 205 0 0 -105z m0
-510 l0 -105 -205 0 -205 0 0 105 0 105 205 0 205 0 0 -105z m0 -500 l0 -105
-205 0 -205 0 0 105 0 105 205 0 205 0 0 -105z m0 -510 l0 -105 -205 0 -205 0
0 105 0 105 205 0 205 0 0 -105z m0 -510 l0 -105 -205 0 -205 0 0 105 0 105
205 0 205 0 0 -105z m0 -510 l0 -105 -205 0 -205 0 0 105 0 105 205 0 205 0 0
-105z m0 -510 l0 -105 -205 0 -205 0 0 105 0 105 205 0 205 0 0 -105z m0 -510
l0 -105 -205 0 -205 0 0 105 0 105 205 0 205 0 0 -105z"/>
<path d="M1240 4775 l0 -1345 1040 0 1040 0 0 1345 0 1345 -1040 0 -1040 0 0
-1345z"/>
<path d="M1240 1760 l0 -1250 1040 0 1040 0 0 1250 0 1250 -1040 0 -1040 0 0
-1250z"/>
</g>
</svg>
